STARTFONT 2.3
FONT -FontForge-Fredoka One-Book-R-Normal--16-160-72-72-P-92-ISO10646-1
SIZE 16 72 72  4
FONTBOUNDINGBOX 22 20 -3 -4
COMMENT "Generated by fontforge, http://fontforge.sourceforge.net"
COMMENT "Copyright (c) 2011 Milena B Brandao (milenabbrandao@gmail.com), with Reserved Font Name "Fredoka""
STARTPROPERTIES 40
FOUNDRY "FontForge"
FAMILY_NAME "Fredoka One"
WEIGHT_NAME "Book"
SLANT "R"
SETWIDTH_NAME "Normal"
ADD_STYLE_NAME ""
PIXEL_SIZE 16
POINT_SIZE 160
RESOLUTION_X 72
RESOLUTION_Y 72
SPACING "P"
AVERAGE_WIDTH 92
CHARSET_REGISTRY "ISO10646"
CHARSET_ENCODING "1"
FONTNAME_REGISTRY ""
CHARSET_COLLECTIONS "ISO10646-1"
BITS_PER_PIXEL 4
FONT_NAME "FredokaOne-Regular"
FACE_NAME "Fredoka One"
COPYRIGHT "Copyright (c) 2011 Milena B Brandao (milenabbrandao@gmail.com), with Reserved Font Name "Fredoka""
FONT_VERSION "1.001"
FONT_ASCENT 13
FONT_DESCENT 3
UNDERLINE_POSITION -2
UNDERLINE_THICKNESS 1
X_HEIGHT 8
CAP_HEIGHT 11
RAW_ASCENT 800
RAW_DESCENT 200
NORM_SPACE 4
RELATIVE_WEIGHT 40
RELATIVE_SETWIDTH 50
SUPERSCRIPT_X 0
SUPERSCRIPT_Y 7
SUPERSCRIPT_SIZE 10
SUBSCRIPT_X 0
SUBSCRIPT_Y 2
SUBSCRIPT_SIZE 10
AVG_LOWERCASE_WIDTH 92
AVG_UPPERCASE_WIDTH 108
ENDPROPERTIES
CHARS 235
STARTCHAR space
ENCODING 32
SWIDTH 253 0
DWIDTH 4 0
BBX 1 1 0 0
BITMAP
00
ENDCHAR
STARTCHAR exclam
ENCODING 33
SWIDTH 267 0
DWIDTH 4 0
BBX 4 12 0 0
BITMAP
1AB3
4FF8
4FF8
4FF8
4FF8
4FF8
4FF8
1AB4
0000
2DE5
5FF9
2EF6
ENDCHAR
STARTCHAR quotedbl
ENCODING 34
SWIDTH 429 0
DWIDTH 7 0
BBX 7 6 0 6
BITMAP
3B608A20
8FD1FF60
8FD0FF60
6FB0DF50
3F80AF10
0B304A00
ENDCHAR
STARTCHAR numbersign
ENCODING 35
SWIDTH 749 0
DWIDTH 12 0
BBX 12 12 0 0
BITMAP
0003A6006A30
0009FB00EF60
000BF901FF40
07AEFCABFFA6
1FFFFFFFFFFA
069FF77CFC62
006FE00BF900
5CDFECCEFDB1
BFFFFFFFFFF1
25EF957FF520
01FF406FE000
01DC105D8000
ENDCHAR
STARTCHAR dollar
ENCODING 36
SWIDTH 475 0
DWIDTH 8 0
BBX 8 15 0 -2
BITMAP
00052000
002FB000
004FC100
09FFFE50
3FFBDF70
6FD01500
3FFD9400
07EFFFA0
0105AFF2
5F903FF2
6FFEFFD0
07EFFC20
002FB000
001FA000
00032000
ENDCHAR
STARTCHAR percent
ENCODING 37
SWIDTH 838 0
DWIDTH 13 0
BBX 13 14 0 -1
BITMAP
00000000052000
029B80002F7000
0DFFF900AD0000
4F93DE03F60000
5F60CF0BD00000
2FECFC4F500000
06FFE3CC000000
001204F46DD800
00000CB4FFFF60
00005F38F42FA0
0000DA08F41FB0
0006F204FFEF70
000D90007EEA10
00051000000000
ENDCHAR
STARTCHAR ampersand
ENCODING 38
SWIDTH 748 0
DWIDTH 12 0
BBX 12 14 0 -1
BITMAP
000134100000
006EFFF70000
02FFFEFF3000
05FF33FF6000
05FF6CFF3000
01FFFFF80000
01EFFF600000
0CFFFD107EA0
5FFEFFC2EFB0
8FF4BFFFFF60
8FFA5EFFFF92
3FFFFFFFFFF8
04CFFFB6AEF6
000120000000
ENDCHAR
STARTCHAR quotesingle
ENCODING 39
SWIDTH 208 0
DWIDTH 3 0
BBX 3 6 0 6
BITMAP
3B60
8FD0
8FD0
6FB0
3F80
0B30
ENDCHAR
STARTCHAR parenleft
ENCODING 40
SWIDTH 384 0
DWIDTH 6 0
BBX 6 17 0 -4
BITMAP
000153
004EFD
01EFC7
08FD10
0DF700
2FF300
5FF000
6FE000
7FD000
7FE000
6FF000
3FF200
0EF500
0AFB00
03FF94
007FFD
000496
ENDCHAR
STARTCHAR parenright
ENCODING 41
SWIDTH 384 0
DWIDTH 6 0
BBX 6 17 0 -4
BITMAP
252000
BFF600
5CFF30
00BFA0
005FE0
001FF4
000DF7
000CF8
000BFA
000BF9
000CF8
000EF5
003FF2
009FC0
38FF50
BFF900
595000
ENDCHAR
STARTCHAR asterisk
ENCODING 42
SWIDTH 503 0
DWIDTH 8 0
BBX 8 8 0 4
BITMAP
002CD200
034FF530
8FFFFFF8
AFFFFFFB
18FFFF91
0AFFFFB0
0AFBAFB0
00511500
ENDCHAR
STARTCHAR plus
ENCODING 43
SWIDTH 527 0
DWIDTH 8 0
BBX 8 9 0 0
BITMAP
00012000
000EF600
001FF700
39AFFCA7
8FFFFFFF
5DDFFEDA
001FF700
000FF700
00046100
ENDCHAR
STARTCHAR comma
ENCODING 44
SWIDTH 238 0
DWIDTH 4 0
BBX 4 6 0 -3
BITMAP
5ED2
9FF6
5EF4
0AE1
6F70
4400
ENDCHAR
STARTCHAR hyphen
ENCODING 45
SWIDTH 433 0
DWIDTH 7 0
BBX 7 3 0 2
BITMAP
4BBBBB30
8FFFFF70
4BCCCB30
ENDCHAR
STARTCHAR period
ENCODING 46
SWIDTH 237 0
DWIDTH 4 0
BBX 4 3 0 0
BITMAP
5ED3
9FF6
5EE3
ENDCHAR
STARTCHAR slash
ENCODING 47
SWIDTH 526 0
DWIDTH 8 0
BBX 9 14 0 -1
BITMAP
0000017200
000008FF10
00001EFE00
00007FF700
0001EFE100
0007FF7000
000DFE1000
006FF80000
00DFE10000
05FF800000
0CFF200000
5FF9000000
AFF2000000
4C80000000
ENDCHAR
STARTCHAR zero
ENCODING 48
SWIDTH 608 0
DWIDTH 10 0
BBX 10 13 0 -1
BITMAP
003ADD8100
04FFFFFD10
0DFFFFFF80
3FFC13EFE0
7FF600AFF3
8FF4008FF4
9FF4008FF5
7FF5009FF4
5FFA01DFF1
1EFFBDFFB0
07FFFFFF30
008EFFD500
0001320000
ENDCHAR
STARTCHAR one
ENCODING 49
SWIDTH 407 0
DWIDTH 7 0
BBX 6 12 0 0
BITMAP
0005B6
007FFD
08FFFD
8FFFFD
9FFFFD
074EFD
000EFD
000EFD
000EFD
000EFD
000EFD
000BFA
ENDCHAR
STARTCHAR two
ENCODING 50
SWIDTH 609 0
DWIDTH 10 0
BBX 10 12 0 0
BITMAP
005BDC8100
07FFFFFC10
2FFFFFFF80
7FF903FFE0
9FF400DFF0
4CB106FFD0
00008FFF70
004DFFFA00
07FFFE6000
4FFFFDCCC3
8FFFFFFFF7
4EFFFFFFF4
ENDCHAR
STARTCHAR three
ENCODING 51
SWIDTH 608 0
DWIDTH 10 0
BBX 10 13 0 -1
BITMAP
004ADD9200
06FFFFFE30
0EFFEEFFC0
0DFA00DFF1
01528AFFE0
0005FFFE40
0004FFFF80
165035DFF2
8FF4009FF4
6FFE9AFFF2
0CFFFFFF80
01AFFFE700
0001320000
ENDCHAR
STARTCHAR four
ENCODING 52
SWIDTH 592 0
DWIDTH 9 0
BBX 9 12 0 0
BITMAP
01B9108B50
07FF70FFC0
0AFF40FFC0
0EFF00FFC0
3FFB00FFC0
6FF801FFC0
AFFFFFFFC0
BFFFFFFFC0
399999FFC0
000000FFC0
000000FFC0
000000BE80
ENDCHAR
STARTCHAR five
ENCODING 53
SWIDTH 530 0
DWIDTH 8 0
BBX 9 13 0 -1
BITMAP
04BBBBB600
0DFFFFFC00
1FFFFFFA00
3FFA111000
5FFDB71000
7FFFFFD100
8FFFFFFA00
17A43EFF00
05300DFF10
7FFACFFD00
9FFFFFF500
08EFFE6000
0002300000
ENDCHAR
STARTCHAR six
ENCODING 54
SWIDTH 560 0
DWIDTH 9 0
BBX 9 13 0 -1
BITMAP
000059A900
002CFFFF30
01DFFFFE10
0AFFD52100
2FFD100000
6FFEED8100
8FFFFFFC00
9FFD8DFF60
8FF504FF80
4FFC7CFF60
0CFFFFFD10
01BFFFB200
0001310000
ENDCHAR
STARTCHAR seven
ENCODING 55
SWIDTH 561 0
DWIDTH 9 0
BBX 9 12 0 0
BITMAP
5BBBBBBA40
BFFFFFFFB0
9FFFFFFF90
02222DFF40
00007FFB00
0003FFF300
000CFF8000
004FFD1000
00AFF60000
00EFE10000
01FFC00000
00DF800000
ENDCHAR
STARTCHAR eight
ENCODING 56
SWIDTH 582 0
DWIDTH 9 0
BBX 9 13 0 -1
BITMAP
005CED8000
07FFFFFB00
1FFFCEFF50
3FFA05FF80
1FFE8CFF50
08FFFFFD00
1EFFFFFF40
7FFA26FFB0
8FF500FFD0
6FFD8BFFA0
0CFFFFFE30
01AFFFC300
0001320000
ENDCHAR
STARTCHAR nine
ENCODING 57
SWIDTH 560 0
DWIDTH 9 0
BBX 9 12 0 0
BITMAP
007CDC6000
0BFFFFF800
5FFEBEFF20
8FF407FF60
7FF94BFF80
2EFFFFFF80
03DFFFFF60
00034DFF20
0001AFFB00
1BDFFFF300
4FFFFE5000
2EFD920000
ENDCHAR
STARTCHAR colon
ENCODING 58
SWIDTH 238 0
DWIDTH 4 0
BBX 4 8 0 0
BITMAP
6FE3
9FF6
4DC2
0000
0000
5ED2
9FF6
5EE3
ENDCHAR
STARTCHAR semicolon
ENCODING 59
SWIDTH 237 0
DWIDTH 4 0
BBX 4 11 0 -3
BITMAP
6FE3
9FF6
4DC2
0000
0000
5ED3
9FF5
5FF4
0BE1
6F70
4500
ENDCHAR
STARTCHAR less
ENCODING 60
SWIDTH 627 0
DWIDTH 10 0
BBX 10 11 0 0
BITMAP
00000018E4
000005DFFB
0003BFFFD3
019FFFE700
4EFFF91000
BFFF700000
4EFFFA1000
019FFFE700
0003BFFFD3
000005DFFB
00000018D4
ENDCHAR
STARTCHAR equal
ENCODING 61
SWIDTH 478 0
DWIDTH 8 0
BBX 8 7 0 0
BITMAP
27777760
8FFFFFF3
5EEEEED2
01111100
7FFFFFE2
8FFFFFF3
15555540
ENDCHAR
STARTCHAR greater
ENCODING 62
SWIDTH 627 0
DWIDTH 10 0
BBX 10 11 0 0
BITMAP
3E81000000
AFFE600000
3CFFFC3000
006EFFF910
00019FFFE4
000007FFFB
00019FFFE4
007EFFF910
3CFFFB3000
BFFE500000
3D81000000
ENDCHAR
STARTCHAR question
ENCODING 63
SWIDTH 512 0
DWIDTH 8 0
BBX 8 12 0 0
BITMAP
03BFEB20
2EFFFFE2
9FFAAFF9
6FB00CFB
01005EF9
000CFFE2
003FFC30
001BB200
00000000
003EE400
007FF700
004EF400
ENDCHAR
STARTCHAR at
ENCODING 64
SWIDTH 908 0
DWIDTH 15 0
BBX 15 14 0 -3
BITMAP
000038AA85100000
002CFFFFFFE70000
02EFD8557CFF9000
0CFA1386695EF500
3FD06FFFFF26FB00
7F81EF8BFF01FF00
8F64FC05FD00DF10
8F83FF9DFB00EF10
6FB0AFFFF904FD00
2FF30568FA7EF700
09FD5003FFFFA000
00BFFFE539940000
0006CFF600000000
0000001000000000
ENDCHAR
STARTCHAR A
ENCODING 65
SWIDTH 765 0
DWIDTH 12 0
BBX 12 13 0 -1
BITMAP
000007910000
00005FF90000
0000DFFF2000
0005FFFF8000
000CFFFFE100
005FFD9FF800
00CFF52FFE10
04FFFDDFFF80
0BFFFFFFFFE1
3FFD8888CFF7
AFF600003FFD
5ED100000AF8
011000000010
ENDCHAR
STARTCHAR B
ENCODING 66
SWIDTH 646 0
DWIDTH 10 0
BBX 10 12 0 0
BITMAP
1ABBBBB700
5FFFFFFFB0
5FFFFFFFF5
5FF8127FF8
5FF7038FF7
5FF74FFFF2
5FF73EFFF7
5FF7002FFC
5FF7001EFE
5FFEDDEFFA
5FFFFFFFF3
2DFFFFEB30
ENDCHAR
STARTCHAR C
ENCODING 67
SWIDTH 679 0
DWIDTH 11 0
BBX 11 13 0 -1
BITMAP
00017BCA7100
005EFFFFFE30
06FFFFFFFF50
1EFFA303A900
6FFA00000000
8FF500000000
8FF400000000
6FF800000000
2FFF50006500
09FFFDBDFF30
009FFFFFFF40
0005CFFFB400
000001200000
ENDCHAR
STARTCHAR D
ENCODING 68
SWIDTH 704 0
DWIDTH 11 0
BBX 11 12 0 0
BITMAP
1ABBBA820000
5FFFFFFF8000
5FFFFFFFF900
5FF8239FFF40
5FF70008FF90
5FF70001FFC0
5FF70001FFC0
5FF70005FFA0
5FF7005EFF50
5FFEDEFFFB00
5FFFFFFFB100
2DFFFEC60000
ENDCHAR
STARTCHAR E
ENCODING 69
SWIDTH 638 0
DWIDTH 10 0
BBX 10 12 0 0
BITMAP
1ABBBBBBB5
5FFFFFFFFC
5FFFFFFFF9
5FF8222210
5FF9444200
5FFFFFFE00
5FFFFFFF00
5FFB888500
5FF7000000
5FFECCCCC6
5FFFFFFFFC
2DFFFFFFF8
ENDCHAR
STARTCHAR F
ENCODING 70
SWIDTH 637 0
DWIDTH 10 0
BBX 10 12 0 0
BITMAP
1ABBBBBBB5
5FFFFFFFFB
5FFFFFFFF9
5FF8222220
5FF9444200
5FFFFFFE00
5FFFFFFE00
5FFC888500
5FF7000000
5FF7000000
5FF7000000
2DE4000000
ENDCHAR
STARTCHAR G
ENCODING 71
SWIDTH 714 0
DWIDTH 11 0
BBX 11 13 0 -1
BITMAP
00039DEC8100
007FFFFFFE30
06FFFFEFFF40
1EFF81029700
6FFA00011100
8FF503FFFF90
8FF505FFFFC0
6FFA0045FFC0
2FFF7001FFC0
08FFFDBDFFC0
00AFFFFFFF70
0006DFFFC600
000001210000
ENDCHAR
STARTCHAR H
ENCODING 72
SWIDTH 699 0
DWIDTH 11 0
BBX 11 12 0 0
BITMAP
1AA200019A30
5FF70004FF80
5FF70004FF80
5FF70004FF80
5FF71115FF80
5FFFFFFFFF80
5FFFFFFFFF80
5FFA5558FF80
5FF70004FF80
5FF70004FF80
5FF70004FF80
2DE40002DE50
ENDCHAR
STARTCHAR I
ENCODING 73
SWIDTH 257 0
DWIDTH 4 0
BBX 4 12 0 0
BITMAP
1AA2
5FF7
5FF7
5FF7
5FF7
5FF7
5FF7
5FF7
5FF7
5FF7
5FF7
2DE4
ENDCHAR
STARTCHAR J
ENCODING 74
SWIDTH 549 0
DWIDTH 9 0
BBX 9 13 0 -1
BITMAP
000004B900
00000AFF10
00000AFF20
00000AFF20
00000AFF20
00000AFF20
00000AFF20
00000AFF20
19600DFF10
9FFCDFFC00
7FFFFFF300
06EFFC4000
0002100000
ENDCHAR
STARTCHAR K
ENCODING 75
SWIDTH 639 0
DWIDTH 10 0
BBX 10 13 0 -1
BITMAP
1AA2001AA1
5FF700AFF8
5FF708FFF3
5FF76FFF50
5FFBFFF500
5FFFFF5000
5FFFFE2000
5FFDFFE200
5FF79FFE20
5FF70BFFD2
5FF701CFF9
2DE4002DE3
0000000110
ENDCHAR
STARTCHAR L
ENCODING 76
SWIDTH 587 0
DWIDTH 9 0
BBX 9 12 0 0
BITMAP
1AA2000000
5FF7000000
5FF7000000
5FF7000000
5FF7000000
5FF7000000
5FF7000000
5FF7000000
5FF7000000
5FFA666630
5FFFFFFFE0
2DFFFFFFC0
ENDCHAR
STARTCHAR M
ENCODING 77
SWIDTH 870 0
DWIDTH 14 0
BBX 14 12 0 0
BITMAP
19A20000003A91
5FFD100002EFF4
5FFFA0000CFFF4
5FFFF7009FFFF4
5FFFFF35FFFFF4
5FFCFFDEFFCFF4
5FF79FFFF78FF4
5FF71CFFB08FF4
5FF702DC208FF4
5FF70000008FF4
5FF70000008FF4
3DE30000005ED1
ENDCHAR
STARTCHAR N
ENCODING 78
SWIDTH 720 0
DWIDTH 12 0
BBX 11 12 0 0
BITMAP
19A300006A60
5FFD1000EFD0
5FFFA000EFD0
5FFFF600EFD0
5FFFFE30EFD0
5FFCFFD1EFD0
5FF7AFF9EFD0
5FF71DFFFFD0
5FF703EFFFD0
5FF7006FFFD0
5FF7000AFFD0
3EE40001CF90
ENDCHAR
STARTCHAR O
ENCODING 79
SWIDTH 775 0
DWIDTH 12 0
BBX 12 13 0 -1
BITMAP
00029CDA5000
007FFFFFFB10
06FFFFFFFFC0
1EFF9115EFF6
5FFB00005FFC
8FF500000EFE
8FF400000DFE
7FF800002FFD
2FFF5001CFF8
09FFFCBEFFE1
01BFFFFFFE40
0007EFFFB200
000002210000
ENDCHAR
STARTCHAR P
ENCODING 80
SWIDTH 632 0
DWIDTH 10 0
BBX 10 12 0 0
BITMAP
1ABBBB9300
5FFFFFFF60
5FFFFFFFF3
5FF8229FF9
5FF7002FFA
5FF8119FF9
5FFFFFFFF3
5FFFFFFF70
5FFDCB9300
5FF7000000
5FF7000000
2DE4000000
ENDCHAR
STARTCHAR Q
ENCODING 81
SWIDTH 830 0
DWIDTH 13 0
BBX 13 13 0 -1
BITMAP
00029CDA500000
007FFFFFFB1000
06FFFFFFFFC000
1EFF9115EFF600
5FFB00005FFC00
8FF500000EFE00
8FF400000DFE00
7FF800002FFC00
2FFF5001CFF800
09FFFCBEFFFF60
01BFFFFFFFFFE0
0007DFFFB39F70
00000221000100
ENDCHAR
STARTCHAR R
ENCODING 82
SWIDTH 631 0
DWIDTH 10 0
BBX 10 12 0 0
BITMAP
1ABBBB9300
5FFFFFFF70
5FFFFFFFF3
5FF8229FF9
5FF7002FFB
5FF8118FF9
5FFFFFFFF4
5FFFFFFFA0
5FFDCBFFE0
5FF700AFF6
5FF7004FFB
2DE4000CE6
ENDCHAR
STARTCHAR S
ENCODING 83
SWIDTH 583 0
DWIDTH 9 0
BBX 9 13 0 -1
BITMAP
007CDC9200
0AFFFFFE10
3FFFCEFE10
5FF8018300
4FFD620000
0CFFFFD700
019FFFFF70
00015AFFC0
2DB100FFD0
8FFD8BFFB0
2EFFFFFF30
02AFFFB300
0000210000
ENDCHAR
STARTCHAR T
ENCODING 84
SWIDTH 731 0
DWIDTH 12 0
BBX 12 12 0 0
BITMAP
6BBBBBBBBBB3
BFFFFFFFFFF6
4999CFFA9982
00008FF40000
00008FF40000
00008FF40000
00008FF40000
00008FF40000
00008FF40000
00008FF40000
00008FF30000
00005ED10000
ENDCHAR
STARTCHAR U
ENCODING 85
SWIDTH 726 0
DWIDTH 12 0
BBX 11 13 0 -1
BITMAP
1AA200006B70
5FF70000DFE0
5FF70000DFF0
5FF70000DFF0
5FF70000DFF0
5FF70000DFF0
5FF80000DFE0
4FFA0001FFD0
1FFE3008FFA0
09FFEBCFFF30
01DFFFFFF800
0019FFFD6000
000012200000
ENDCHAR
STARTCHAR V
ENCODING 86
SWIDTH 783 0
DWIDTH 13 0
BBX 13 12 0 0
BITMAP
2A90000003C600
AFF400000BFF30
6FFA00003FFD00
0DFF2000AFF600
06FF9002FFD000
00DFF108FF7000
006FF81EFE1000
000EFE8FF70000
0007FFFFE10000
0001EFFF700000
00007FFE100000
00001BE5000000
ENDCHAR
STARTCHAR W
ENCODING 87
SWIDTH 999 0
DWIDTH 16 0
BBX 16 12 0 0
BITMAP
3A900019910009A3
BFF3007FF6003FFA
7FF800CFFB008FF6
2FFD02FFFF10DFF1
0BFF27FFFF63FFB0
06FF7CFFFFB8FF60
01FFDFFBBFFDFF10
00BFFFF56FFFFB00
006FFFF11FFFF500
001FFFA00BFFE100
000AFF5006FFA000
0003DB0001CD3000
ENDCHAR
STARTCHAR X
ENCODING 88
SWIDTH 741 0
DWIDTH 12 0
BBX 12 13 0 -1
BITMAP
2DB000001CC1
AFFA0000CFF8
4FFF800AFFE2
05FFF68FFE30
006FFFFFF400
0007FFFF6000
0006FFFF4000
005FFFFFE300
04FFF8AFFE20
2EFFA00BFFD1
AFFB0001DFF8
4EC100002DD2
010000000110
ENDCHAR
STARTCHAR Y
ENCODING 89
SWIDTH 686 0
DWIDTH 11 0
BBX 11 12 0 0
BITMAP
2BA00000AB20
AFF60006FFA0
5FFE102EFF50
0AFFA0AFFA00
01EFF8FFD100
005FFFFF4000
000AFFF90000
0001FFE10000
0000EFE00000
0000EFE00000
0000EFE00000
0000BFA00000
ENDCHAR
STARTCHAR Z
ENCODING 90
SWIDTH 643 0
DWIDTH 10 0
BBX 10 12 0 0
BITMAP
3BBBBBBBA2
8FFFFFFFF9
6FFFFFFFF5
00111CFFA0
00008FFD10
0004FFF400
001DFF8000
00AFFC0000
06FFE20000
2EFFDBBBB6
8FFFFFFFFD
4EFFFFFFFA
ENDCHAR
STARTCHAR bracketleft
ENCODING 91
SWIDTH 348 0
DWIDTH 6 0
BBX 6 17 0 -4
BITMAP
046650
5FFFF4
5FFEE3
5FF400
5FF400
5FF400
5FF400
5FF400
5FF400
5FF400
5FF400
5FF400
5FF400
5FF400
5FFBA1
5FFFF4
189991
ENDCHAR
STARTCHAR backslash
ENCODING 92
SWIDTH 528 0
DWIDTH 8 0
BBX 9 14 0 -1
BITMAP
0640000000
9FE1000000
7FF7000000
1EFE000000
08FF600000
01EFD00000
009FF60000
002FFD0000
0009FF5000
0002FFC000
0000AFF400
00003FFC00
00000AFF20
000003C800
ENDCHAR
STARTCHAR bracketright
ENCODING 93
SWIDTH 348 0
DWIDTH 6 0
BBX 5 17 0 -4
BITMAP
266520
BFFFD0
8EFFE0
00AFE0
00AFE0
00AFE0
00AFE0
00AFE0
00AFE0
00AFE0
00AFE0
00AFE0
00AFE0
00AFE0
6ADFE0
BFFFD0
599950
ENDCHAR
STARTCHAR asciicircum
ENCODING 94
SWIDTH 526 0
DWIDTH 8 0
BBX 8 5 0 4
BITMAP
00059100
006FFB10
06FFFFB1
3FFB6FF9
1CB005E5
ENDCHAR
STARTCHAR underscore
ENCODING 95
SWIDTH 826 0
DWIDTH 13 0
BBX 13 3 0 -4
BITMAP
48888888888860
BFFFFFFFFFFFE0
5AAAAAAAAAAA70
ENDCHAR
STARTCHAR grave
ENCODING 96
SWIDTH 482 0
DWIDTH 8 0
BBX 6 4 1 9
BITMAP
041000
4FFC71
5FFFF3
015AB0
ENDCHAR
STARTCHAR a
ENCODING 97
SWIDTH 596 0
DWIDTH 10 0
BBX 9 9 0 0
BITMAP
0005513630
02DFFEEFD0
1DFFFFFFD0
6FFD6BFFD0
8FF401FFD0
8FF704FFD0
3FFFDFFFD0
09FFFFFFD0
007DE99E90
ENDCHAR
STARTCHAR b
ENCODING 98
SWIDTH 592 0
DWIDTH 9 0
BBX 10 13 0 0
BITMAP
0450000000
5FF6000000
5FF7000000
5FF7000000
5FF7462000
5FFEFFF700
5FFFFFFF50
5FFE79FFD0
5FF800CFF1
5FFB01EFF0
5FFFDEFFA0
5FFFFFFE20
3DE7CEA200
ENDCHAR
STARTCHAR c
ENCODING 99
SWIDTH 517 0
DWIDTH 8 0
BBX 8 10 0 -1
BITMAP
00058620
02DFFFF7
1DFFFFFC
6FFD69D3
8FF50000
8FF80140
3FFFDEF7
09FFFFFB
006DFFA2
00001000
ENDCHAR
STARTCHAR d
ENCODING 100
SWIDTH 598 0
DWIDTH 10 0
BBX 9 13 0 0
BITMAP
0000002520
000000CFD0
000000DFE0
000000DFE0
000452DFE0
02CFFEEFE0
0CFFFFFFE0
4FFD7BFFE0
7FF500FFE0
7FF803FFE0
2FFFDFFFE0
08FFFFFFE0
006DEA9EA0
ENDCHAR
STARTCHAR e
ENCODING 101
SWIDTH 573 0
DWIDTH 9 0
BBX 9 10 0 -1
BITMAP
0016985000
03EFFFFB10
1EFFFFFF70
6FFB12FFB0
8FFDBCFF90
7FFDBBB920
4FFD547800
0AFFFFFF40
019EFFFC10
0001231000
ENDCHAR
STARTCHAR f
ENCODING 102
SWIDTH 450 0
DWIDTH 7 0
BBX 7 13 0 0
BITMAP
00014610
004EFF70
01EFFF70
03FFC610
18FFA630
AFFFFFD0
AFFFFFD0
28FFB630
04FF8000
04FF8000
04FF8000
04FF8000
02EE4000
ENDCHAR
STARTCHAR g
ENCODING 103
SWIDTH 585 0
DWIDTH 9 0
BBX 9 13 0 -4
BITMAP
0015514720
03DFFEEFA0
1DFFFFFFB0
6FFB5BFFB0
9FF303FFB0
7FF807FFB0
2FFFFFFFB0
06FFFFFFB0
004AA5FFB0
029306FF90
0BFFFFFF30
07FFFFF600
0027972000
ENDCHAR
STARTCHAR h
ENCODING 104
SWIDTH 605 0
DWIDTH 10 0
BBX 10 13 0 0
BITMAP
0450000000
5FF6000000
5FF7000000
5FF7000000
5FF7363000
5FFCFFF900
5FFFFFFF60
5FFE79FFD0
5FF700CFF0
5FF700CFF1
5FF700CFF1
5FF600BFF1
3EE3008FC0
ENDCHAR
STARTCHAR i
ENCODING 105
SWIDTH 255 0
DWIDTH 4 0
BBX 4 13 0 0
BITMAP
0450
5FF6
5FF6
0560
0550
5FF5
5FF7
5FF7
5FF7
5FF7
5FF7
5FF6
3EE3
ENDCHAR
STARTCHAR j
ENCODING 106
SWIDTH 252 0
DWIDTH 4 0
BBX 7 17 -3 -4
BITMAP
00004400
0005FF50
0005FF50
00005500
00006600
0005FF50
0005FF60
0005FF60
0005FF60
0005FF60
0005FF60
0005FF60
0006FF60
003CFF40
0EFFFD00
1FFFD200
07961000
ENDCHAR
STARTCHAR k
ENCODING 107
SWIDTH 536 0
DWIDTH 9 0
BBX 9 13 0 0
BITMAP
0550000000
5FF6000000
5FF7000000
5FF7000000
5FF7000000
5FF71BE300
5FF8CFFA00
5FFFFFE300
5FFFFD2000
5FFFFF7000
5FFCFFFA00
5FF66FFF40
3EE305EB00
ENDCHAR
STARTCHAR l
ENCODING 108
SWIDTH 327 0
DWIDTH 5 0
BBX 5 13 0 0
BITMAP
055000
5FF600
5FF700
5FF700
5FF700
5FF700
5FF700
5FF700
5FF700
5FF700
4FFD80
2FFFE0
07DFC0
ENDCHAR
STARTCHAR m
ENCODING 109
SWIDTH 851 0
DWIDTH 14 0
BBX 13 9 0 0
BITMAP
05504620155100
5FFBFFF6DFFD20
5FFFFFFFFFFF90
5FFD7EFFB8FFD0
5FF709FF40DFE0
5FF709FF30CFF0
5FF709FF30CFF0
5FF709FF30CFE0
3EE405ED109FB0
ENDCHAR
STARTCHAR n
ENCODING 110
SWIDTH 606 0
DWIDTH 10 0
BBX 10 9 0 0
BITMAP
0561363000
5FFCFFFA00
5FFFFFFF70
5FFE79FFD0
5FF700CFF1
5FF700CFF1
5FF700CFF1
5FF600BFF1
3DE3007EC0
ENDCHAR
STARTCHAR o
ENCODING 111
SWIDTH 600 0
DWIDTH 10 0
BBX 10 10 0 -1
BITMAP
0016984000
03DFFFFA00
1DFFFFFF80
6FFC46FFF1
8FF400AFF3
7FF700DFF2
3FFFBDFFC0
09FFFFFF30
007EFFC300
0000110000
ENDCHAR
STARTCHAR p
ENCODING 112
SWIDTH 582 0
DWIDTH 9 0
BBX 9 13 0 -4
BITMAP
0550462000
5FFDFFF600
5FFFFFFF40
5FFE69FFB0
5FF700DFD0
5FFB13FFC0
5FFFFFFF70
5FFFFFFB00
5FF8AB7000
5FF6000000
5FF6000000
5FF5000000
1891000000
ENDCHAR
STARTCHAR q
ENCODING 113
SWIDTH 582 0
DWIDTH 9 0
BBX 9 13 0 -4
BITMAP
0015514610
03DFFDFF90
1DFFFFFFA0
6FFC5CFFA0
9FF303FFA0
7FF807FFA0
2FFFFFFFA0
07FFFFFFA0
004AB6FFA0
000001FFA0
000001FFA0
000001FFA0
0000007930
ENDCHAR
STARTCHAR r
ENCODING 114
SWIDTH 457 0
DWIDTH 7 0
BBX 8 9 0 0
BITMAP
05615730
5FFDFFF1
5FFFFFD0
5FFC4630
5FF70000
5FF70000
5FF70000
5FF70000
3EE40000
ENDCHAR
STARTCHAR s
ENCODING 115
SWIDTH 489 0
DWIDTH 8 0
BBX 8 10 0 -1
BITMAP
00588610
0CFFFFE0
3FFCAEA0
4FFA5200
0DFFFFA0
02AEFFF4
2C938FF6
8FFFFFF3
29EFFD60
00021000
ENDCHAR
STARTCHAR t
ENCODING 116
SWIDTH 449 0
DWIDTH 7 0
BBX 7 12 0 0
BITMAP
00340000
03FF6000
04FF7000
28FFA630
BFFFFFD0
BFFFFFD0
28FFA630
04FF8000
04FF8000
03FFE920
00EFFF70
003BEF40
ENDCHAR
STARTCHAR u
ENCODING 117
SWIDTH 606 0
DWIDTH 10 0
BBX 10 9 0 0
BITMAP
0560002640
5FF600BFF0
5FF700BFF1
5FF700BFF1
5FF700BFF1
4FFA01EFF1
1EFFDEFFF1
07FFFFFFF1
006DE98EB0
ENDCHAR
STARTCHAR v
ENCODING 118
SWIDTH 638 0
DWIDTH 10 0
BBX 10 9 0 0
BITMAP
0650000371
9FF2000DFC
8FFA007FFB
1EFF31EFF3
06FFA7FF90
00CFFEFE10
003FFFF600
000AFFD000
0001DE3000
ENDCHAR
STARTCHAR w
ENCODING 119
SWIDTH 793 0
DWIDTH 13 0
BBX 13 9 0 0
BITMAP
16400261006500
AFF11EFA05FF50
8FF65FFF1BFF30
2FFCBFFF8FFC00
0BFFFFFFFFF600
04FFFFDFFFE100
00DFFE4FFF9000
007FF90DFF3000
001DE205F90000
ENDCHAR
STARTCHAR x
ENCODING 120
SWIDTH 567 0
DWIDTH 9 0
BBX 9 9 0 0
BITMAP
0630003700
8FF403EF90
8FFF7EFF90
0AFFFFFB00
00BFFFC000
03EFFFE400
3EFFEFFE30
AFFB1AFFB0
3EB100AE40
ENDCHAR
STARTCHAR y
ENCODING 121
SWIDTH 604 0
DWIDTH 10 0
BBX 10 13 0 -4
BITMAP
0750000740
9FF2006FF5
7FFB00DFF2
0DFF55FFB0
04FFDCFF40
00AFFFFC00
002EFFF600
0007FFD000
0008FF7000
001EFE1000
007FF90000
00BFF20000
002A700000
ENDCHAR
STARTCHAR z
ENCODING 122
SWIDTH 586 0
DWIDTH 9 0
BBX 9 9 0 0
BITMAP
0577777610
3FFFFFFF90
3FFFFFFF90
0466EFFB10
001CFFA000
02DFF90000
2DFFFCCC80
8FFFFFFFE0
4EFFFFFFB0
ENDCHAR
STARTCHAR braceleft
ENCODING 123
SWIDTH 381 0
DWIDTH 6 0
BBX 6 17 0 -4
BITMAP
000153
003EFC
00BFF9
00EF60
00EF60
00EF60
00EF50
4AFF20
BFFA00
7DFE10
00EF50
00EF60
00EF60
00EF60
00CFC6
005FFC
000485
ENDCHAR
STARTCHAR bar
ENCODING 124
SWIDTH 217 0
DWIDTH 3 0
BBX 3 17 0 -4
BITMAP
0520
4FC0
5FC0
5FC0
5FC0
5FC0
5FC0
5FC0
5FC0
5FC0
5FC0
5FC0
5FC0
5FC0
5FC0
5FC0
2A60
ENDCHAR
STARTCHAR braceright
ENCODING 125
SWIDTH 381 0
DWIDTH 6 0
BBX 6 17 0 -4
BITMAP
252000
BFE400
8FFC00
05FF00
04FF00
04FF00
04FF00
01FFA5
009FFC
00EFE8
03FF10
04FF00
04FF00
04FF00
5CFD00
BFF600
485000
ENDCHAR
STARTCHAR asciitilde
ENCODING 126
SWIDTH 651 0
DWIDTH 10 0
BBX 10 4 0 2
BITMAP
02BFE64EA0
0DFFFFFFF1
1EF9DFFF60
0250056200
ENDCHAR
STARTCHAR exclamdown
ENCODING 161
SWIDTH 268 0
DWIDTH 4 0
BBX 4 13 0 -4
BITMAP
0120
3FF7
5FF9
1BC4
0000
2CD5
4FF8
4FF8
4FF8
4FF8
4FF8
4FF8
1893
ENDCHAR
STARTCHAR cent
ENCODING 162
SWIDTH 434 0
DWIDTH 7 0
BBX 7 13 0 -2
BITMAP
00086000
000FC000
000FC000
02BFFB20
1EFFFF70
7FF66A10
8FC00000
6FF89B10
1DFFFF70
019FF810
000FC000
000FC000
00032000
ENDCHAR
STARTCHAR sterling
ENCODING 163
SWIDTH 675 0
DWIDTH 11 0
BBX 11 12 0 0
BITMAP
00016AB94000
002DFFFFFA00
00CFFEDFFF30
02FFB002B900
04FF50000000
7DFFDC900000
BFFFFFD00000
25DFE5300000
00BFD0000000
02FFE9999920
09FFFFFFFF80
06FFFFFFFF50
ENDCHAR
STARTCHAR currency
ENCODING 164
SWIDTH 677 0
DWIDTH 11 0
BBX 11 13 0 0
BITMAP
041000001200
6FA00000CF40
4FFECCCEFE20
08FFFFFFF600
0BFFA8BFF800
1FF70009FE00
3FF30005FF10
3FF40006FF00
0EFB102CFD00
08FFFEFFF600
0CFFFFFFFA00
7FE86669FF40
3C5000007B20
ENDCHAR
STARTCHAR yen
ENCODING 165
SWIDTH 677 0
DWIDTH 11 0
BBX 11 12 0 0
BITMAP
198000009800
AFF40007FF70
6FFD102EFF30
0BFF80BFF800
02EFF8FFD100
005FFFFF3000
02BFFFFEB100
02EEFFFED100
0000FFC00000
02EFFFFFE100
01ABFFEBA000
0000AE800000
ENDCHAR
STARTCHAR brokenbar
ENCODING 166
SWIDTH 215 0
DWIDTH 3 0
BBX 3 17 0 -4
BITMAP
0520
4FB0
5FC0
5FC0
5FC0
5FC0
5FC0
2D80
0000
1A60
5FC0
5FC0
5FC0
5FC0
5FC0
5FC0
1840
ENDCHAR
STARTCHAR section
ENCODING 167
SWIDTH 560 0
DWIDTH 9 0
BBX 9 17 0 -4
BITMAP
0003420000
03DFFFD400
1DFFFFFD00
4FFA4AF500
5FF8000000
2EFFEA5000
0CFFFFFC10
3FFDAEFF60
5FF504FF80
3FFE8AFF60
0AFFFFFE10
005BFFFF40
042017FF80
5FE405FF70
6FFFEFFF30
09FFFFF700
0037972000
ENDCHAR
STARTCHAR dieresis
ENCODING 168
SWIDTH 489 0
DWIDTH 8 0
BBX 8 4 0 9
BITMAP
04500351
4FF60EFB
5FF70FFC
06610473
ENDCHAR
STARTCHAR copyright
ENCODING 169
SWIDTH 711 0
DWIDTH 11 0
BBX 11 11 0 1
BITMAP
003ADEEB6000
06FC867AFB00
1F918CB43F60
6F1BFDEC0AB0
8D3F901107E0
9C4F600007E0
7E1ED58608C0
4F35EFFB0D90
0CD42542AF30
01BFFEEFE500
000367641000
ENDCHAR
STARTCHAR ordfeminine
ENCODING 170
SWIDTH 445 0
DWIDTH 7 0
BBX 7 7 0 5
BITMAP
00452510
0AFFEF70
5FEAFF70
8F70AF70
6FD7EF70
1CFFFF70
01784830
ENDCHAR
STARTCHAR guillemotleft
ENCODING 171
SWIDTH 668 0
DWIDTH 11 0
BBX 11 9 0 0
BITMAP
000140002300
001CF603EF30
01CFF63EFE30
1CFF73EFE400
AFF70DFF4000
7FFC1AFF9000
08FFC1BFF900
008FF80BFF50
0007D200AB10
ENDCHAR
STARTCHAR logicalnot
ENCODING 172
SWIDTH 526 0
DWIDTH 8 0
BBX 9 6 0 2
BITMAP
0111111000
8FFFFFFE10
BFFFFFFF30
5BBBBBFF30
000000FF30
000000CE10
ENDCHAR
STARTCHAR registered
ENCODING 174
SWIDTH 711 0
DWIDTH 11 0
BBX 11 11 0 1
BITMAP
003ADEEB6000
06FC867AFB00
1F94DDC43F60
6F16FCEE1AB0
8D06F49F27E0
9C06FFFD07E0
7E06FADD08C0
4F36F37F3D90
0CD42005AF30
01BFFEEFE500
000367641000
ENDCHAR
STARTCHAR degree
ENCODING 176
SWIDTH 407 0
DWIDTH 7 0
BBX 7 7 0 6
BITMAP
00231000
09FFD300
5FDAFD00
8F40CF10
6FB7FE00
0CFFF500
00562000
ENDCHAR
STARTCHAR plusminus
ENCODING 177
SWIDTH 505 0
DWIDTH 8 0
BBX 8 9 0 0
BITMAP
00099100
002FF300
5DEFFED6
9FFFFFFA
279FF973
001FF200
02344320
4FFFFFF5
3EFFFFE5
ENDCHAR
STARTCHAR twosuperior
ENCODING 178
SWIDTH 455 0
DWIDTH 7 0
BBX 7 9 0 3
BITMAP
03CFC400
2EFFFF30
7FE6DF90
8FA0CFA0
143BFF50
06EFF800
5FFFECA0
8FFFFFF0
17888860
ENDCHAR
STARTCHAR threesuperior
ENCODING 179
SWIDTH 457 0
DWIDTH 7 0
BBX 7 9 0 3
BITMAP
03BFD700
1EFFFF60
2FE3CFA0
0238EF70
003FFF60
5D729FC0
7FF8CFB0
1DFFFF40
017A8200
ENDCHAR
STARTCHAR acute
ENCODING 180
SWIDTH 605 0
DWIDTH 10 0
BBX 6 4 2 9
BITMAP
000330
29DFE0
8FFFD1
3C8400
ENDCHAR
STARTCHAR mu
ENCODING 181
SWIDTH 601 0
DWIDTH 10 0
BBX 9 13 0 -4
BITMAP
0550002630
5FF600CFE0
5FF600CFF0
5FF600CFF0
5FF600CFF0
5FFA02EFF0
5FFFEFFFF0
5FFFFFFFE0
5FFCC87D90
5FF6000000
5FF6000000
5FF6000000
1771000000
ENDCHAR
STARTCHAR paragraph
ENCODING 182
SWIDTH 614 0
DWIDTH 10 0
BBX 9 14 0 -4
BITMAP
07BCCCCC80
5FFFFEDFD0
7FFFF84FD0
7FFFF84FD0
4FFFF84FD0
06BEF84FD0
000AF84FD0
000AF84FD0
000AF84FD0
000AF84FD0
000AF84FD0
000AF84FD0
000AF74FD0
0004A31A60
ENDCHAR
STARTCHAR periodcentered
ENCODING 183
SWIDTH 237 0
DWIDTH 4 0
BBX 4 4 0 3
BITMAP
1650
8FF5
8FF5
2871
ENDCHAR
STARTCHAR cedilla
ENCODING 184
SWIDTH 559 0
DWIDTH 9 0
BBX 4 4 2 -3
BITMAP
0561
1FFB
07BD
1DF6
ENDCHAR
STARTCHAR onesuperior
ENCODING 185
SWIDTH 321 0
DWIDTH 5 0
BBX 5 9 0 3
BITMAP
008D40
0AFF70
9FFF80
7FFF80
01DF80
00DF80
00DF80
00DF70
005820
ENDCHAR
STARTCHAR ordmasculine
ENCODING 186
SWIDTH 439 0
DWIDTH 7 0
BBX 7 7 0 5
BITMAP
00242000
08FFF800
4FFBEF50
8F807F80
7FB3BF70
1EFFFE20
029CA200
ENDCHAR
STARTCHAR guillemotright
ENCODING 187
SWIDTH 669 0
DWIDTH 11 0
BBX 11 9 0 0
BITMAP
040001400000
8FB10BF90000
7FFC1AFF9000
08FFC1BFF900
009FF80BFF50
01CFF53EFE30
1DFF73EFE400
AFF60DFE4000
4D6006D40000
ENDCHAR
STARTCHAR onequarter
ENCODING 188
SWIDTH 786 0
DWIDTH 13 0
BBX 12 14 0 -1
BITMAP
001300006200
02DF2003F600
1DFF200BD000
1BEF204F5000
00AF20CC0000
00AF25F40000
00AF2CB492A5
00355F3BF6F9
0000DA0EE3F9
0006F33FEBF9
001E904FFFF9
007F200125F9
00E9000002E7
005100000000
ENDCHAR
STARTCHAR onehalf
ENCODING 189
SWIDTH 804 0
DWIDTH 13 0
BBX 12 14 0 -1
BITMAP
001300006200
02DF2003F600
1DFF200BD000
1BEF204F5000
00AF20CC0000
00AF25F40000
00AF2CB2AB50
00355F4EFFF4
0000DA4FA6F9
0006F3294AF7
001E9005EFB0
007F203FFFDA
00E9003EFFFC
005100000000
ENDCHAR
STARTCHAR threequarters
ENCODING 190
SWIDTH 842 0
DWIDTH 13 0
BBX 13 14 0 -1
BITMAP
00241000061000
06FFE4004F4000
0DE8FB00CC0000
0249F905F40000
034CFA0DB00000
2FB3ED6F300000
0CFFF8DA693A40
006857F2DF6F80
00001E91FC5F80
00008E15FDBF80
0001E806FFFF80
0009E100226F80
001F7000003E60
00060000000000
ENDCHAR
STARTCHAR questiondown
ENCODING 191
SWIDTH 511 0
DWIDTH 8 0
BBX 8 13 0 -4
BITMAP
00067100
004FF900
004FF900
00067100
00023000
003FF500
07FFF500
4FFE7000
8FF10382
8FF31CFD
3FFFFFF9
07FFFFC1
00377500
ENDCHAR
STARTCHAR Agrave
ENCODING 192
SWIDTH 765 0
DWIDTH 12 0
BBX 12 17 0 -1
BITMAP
000141000000
0007FFB50000
0008FFFF0000
000026B90000
000007910000
00005FF90000
0000DFFF2000
0005FFFF8000
000CFFFFE100
005FFD9FF800
00CFF52FFE10
04FFFDDFFF80
0BFFFFFFFFE1
3FFD8888CFF7
AFF600003FFD
5ED100000AF8
011000000010
ENDCHAR
STARTCHAR Aacute
ENCODING 193
SWIDTH 765 0
DWIDTH 12 0
BBX 12 17 0 -1
BITMAP
000000274000
00005CFFD000
0000AFFE9000
000039510000
000007910000
00005FF90000
0000DFFF2000
0005FFFF8000
000CFFFFE100
005FFD9FF800
00CFF52FFE10
04FFFDDFFF80
0BFFFFFFFFE1
3FFD8888CFF7
AFF600003FFD
5ED100000AF8
011000000010
ENDCHAR
STARTCHAR Acircumflex
ENCODING 194
SWIDTH 765 0
DWIDTH 12 0
BBX 12 17 0 -1
BITMAP
000016730000
000BFFFFD200
000DFEDFF200
000251044000
000007910000
00005FF90000
0000DFFF2000
0005FFFF8000
000CFFFFE100
005FFD9FF800
00CFF52FFE10
04FFFDDFFF80
0BFFFFFFFFE1
3FFD8888CFF7
AFF600003FFD
5ED100000AF8
011000000010
ENDCHAR
STARTCHAR Atilde
ENCODING 195
SWIDTH 765 0
DWIDTH 12 0
BBX 12 17 0 -1
BITMAP
000168226000
000BFFEEF300
000EDAFFB000
000220340000
000007910000
00005FF90000
0000DFFF2000
0005FFFF8000
000CFFFFE100
005FFD9FF800
00CFF52FFE10
04FFFDDFFF80
0BFFFFFFFFE1
3FFD8888CFF7
AFF600003FFD
5ED100000AF8
011000000010
ENDCHAR
STARTCHAR Adieresis
ENCODING 196
SWIDTH 765 0
DWIDTH 12 0
BBX 12 17 0 -1
BITMAP
001771068300
006FF61FFB00
005FF51FFA00
000330024100
000007910000
00005FF90000
0000DFFF2000
0005FFFF8000
000CFFFFE100
005FFD9FF800
00CFF52FFE10
04FFFDDFFF80
0BFFFFFFFFE1
3FFD8888CFF7
AFF600003FFD
5ED100000AF8
011000000010
ENDCHAR
STARTCHAR Aring
ENCODING 197
SWIDTH 765 0
DWIDTH 12 0
BBX 12 16 0 -1
BITMAP
000018930000
0000BA8E0000
0000E30E2000
00008DCC0000
00005FF90000
0000DFFF2000
0005FFFF8000
000CFFFFE100
004FFD9FF800
00CFF52FFE10
04FFFDDFFF80
0BFFFFFFFFE1
3FFD8888CFF7
AFF600003FFD
5ED100000AF8
011000000010
ENDCHAR
STARTCHAR AE
ENCODING 198
SWIDTH 1148 0
DWIDTH 18 0
BBX 18 13 0 -1
BITMAP
000000004BBBBBBBB7
00000003EFFFFFFFFE
0000002EFFFFFFFFFC
000001DFFFFB111110
00001CFFEFFC444300
0000BFFE5FFFFFFF20
000AFFE33FFFFFFF20
009FFFDBCFFD888600
07FFFFFFFFFA000000
6FFFA999AFFEDDDDD8
EFF700002FFFFFFFFE
7F8000000AFFFFFFFA
010000000000000000
ENDCHAR
STARTCHAR Ccedilla
ENCODING 199
SWIDTH 679 0
DWIDTH 11 0
BBX 11 16 0 -4
BITMAP
00017BDB7100
005EFFFFFE30
06FFFFFFFF50
1EFFA203A900
6FFA00000000
8FF500000000
8FF400000000
6FF800000000
2FFF50006500
08FFFDBDFF30
009FFFFFFF40
0004BFFFB400
00000EFA0000
000007AE0000
00000DF70000
000000100000
ENDCHAR
STARTCHAR Egrave
ENCODING 200
SWIDTH 638 0
DWIDTH 10 0
BBX 10 16 0 0
BITMAP
0002300000
000CFE9300
000DFFFA00
000038C400
1ABBBBBBB5
5FFFFFFFFC
5FFFFFFFF9
5FF8222210
5FF9444200
5FFFFFFE00
5FFFFFFF00
5FFB888500
5FF7000000
5FFECCCCC6
5FFFFFFFFC
2DFFFFFFF8
ENDCHAR
STARTCHAR Eacute
ENCODING 201
SWIDTH 638 0
DWIDTH 10 0
BBX 10 16 0 0
BITMAP
0000027400
0006DFFC00
000AFFE800
0003940000
1ABBBBBBB5
5FFFFFFFFC
5FFFFFFFF9
5FF8222210
5FF9444200
5FFFFFFE00
5FFFFFFF00
5FFB888500
5FF7000000
5FFECCCCC6
5FFFFFFFFC
2DFFFFFFF8
ENDCHAR
STARTCHAR Ecircumflex
ENCODING 202
SWIDTH 638 0
DWIDTH 10 0
BBX 10 16 0 0
BITMAP
0001673000
00AFFFFD20
00DFEDFF30
0025104500
1ABBBBBBB5
5FFFFFFFFC
5FFFFFFFF9
5FF8222210
5FF9444200
5FFFFFFE00
5FFFFFFF00
5FFB888500
5FF7000000
5FFECCCCC6
5FFFFFFFFC
2DFFFFFFF8
ENDCHAR
STARTCHAR Edieresis
ENCODING 203
SWIDTH 638 0
DWIDTH 10 0
BBX 10 16 0 0
BITMAP
0078105840
04FF80FFC0
03FF70EFC0
0033002410
1ABBBBBBB5
5FFFFFFFFC
5FFFFFFFF9
5FF8222210
5FF9444200
5FFFFFFE00
5FFFFFFF00
5FFB888500
5FF7000000
5FFECCCCC6
5FFFFFFFFC
2DFFFFFFF8
ENDCHAR
STARTCHAR Igrave
ENCODING 204
SWIDTH 267 0
DWIDTH 4 0
BBX 5 16 -1 0
BITMAP
140000
9FEA40
9FFFD0
027C70
019A30
04FF80
04FF80
04FF80
04FF80
04FF80
04FF80
04FF80
04FF80
04FF80
04FF80
02DE50
ENDCHAR
STARTCHAR Iacute
ENCODING 205
SWIDTH 269 0
DWIDTH 4 0
BBX 5 16 0 0
BITMAP
002650
4CFFE0
8FFFA0
295100
19A300
4FF800
4FF800
4FF800
4FF800
4FF800
4FF800
4FF800
4FF800
4FF800
4FF800
1DE500
ENDCHAR
STARTCHAR Icircumflex
ENCODING 206
SWIDTH 270 0
DWIDTH 4 0
BBX 7 16 -1 0
BITMAP
01673000
AFFFFD20
DFEDFF30
25104500
019A3000
04FF8000
04FF8000
04FF8000
04FF8000
04FF8000
04FF8000
04FF8000
04FF8000
04FF8000
04FF8000
01DE5000
ENDCHAR
STARTCHAR Idieresis
ENCODING 207
SWIDTH 268 0
DWIDTH 4 0
BBX 8 16 -2 0
BITMAP
17810583
5FF71FFB
5FF60EFB
03300241
0019A300
003FF900
004FF900
004FF900
004FF900
004FF900
004FF900
004FF900
004FF900
004FF900
003FF900
001DE500
ENDCHAR
STARTCHAR Eth
ENCODING 208
SWIDTH 775 0
DWIDTH 12 0
BBX 12 12 0 0
BITMAP
009BBBB83000
03FFFFFFFA10
03FFFFFFFFB0
03FFA237FFF6
03FF90006FFC
6EFFFC000EFE
8FFFFE000EFE
05FFA1003FFC
03FF9003DFF7
03FFEDEFFFD1
03FFFFFFFD20
01DFFFEC7100
ENDCHAR
STARTCHAR Ntilde
ENCODING 209
SWIDTH 720 0
DWIDTH 12 0
BBX 11 16 0 0
BITMAP
000286053000
002EFFDFD000
004FBDFF6000
000301420000
19A300006A60
5FFD1000EFD0
5FFFA000EFD0
5FFFF600EFD0
5FFFFE30EFD0
5FFCFFD1EFD0
5FF7AFF9EFD0
5FF71DFFFFD0
5FF703EFFFD0
5FF7006FFFD0
5FF7000AFFD0
3EE40001CF90
ENDCHAR
STARTCHAR Ograve
ENCODING 210
SWIDTH 775 0
DWIDTH 12 0
BBX 12 17 0 -1
BITMAP
000041000000
0005FFB70000
0005FFFF2000
000016AB0000
00029CDA5000
007FFFFFFB10
06FFFFFFFFC0
1EFF9115EFF6
5FFB00005FFC
8FF500000EFE
8FF400000DFE
7FF800002FFD
2FFF5001CFF8
09FFFCBEFFE1
01BFFFFFFE40
0007EFFFB200
000002210000
ENDCHAR
STARTCHAR Oacute
ENCODING 211
SWIDTH 775 0
DWIDTH 12 0
BBX 12 17 0 -1
BITMAP
000000273000
00006DFFC000
0000BFFE8000
000049400000
00029CDA5000
007FFFFFFB10
06FFFFFFFFC0
1EFF9115EFF6
5FFB00005FFC
8FF500000EFE
8FF400000DFE
7FF800002FFD
2FFF5001CFF8
09FFFCBEFFE1
01BFFFFFFE40
0007EFFFB200
000002210000
ENDCHAR
STARTCHAR Ocircumflex
ENCODING 212
SWIDTH 775 0
DWIDTH 12 0
BBX 12 17 0 -1
BITMAP
000016830000
0009FFFFD300
000CFECFF400
000251035000
00029CDA5000
007FFFFFFB10
06FFFFFFFFC0
1EFF9115EFF6
5FFB00005FFC
8FF500000EFE
8FF400000DFE
7FF800002FFD
2FFF5001CFF8
09FFFCBEFFE1
01BFFFFFFE40
0007EFFFB200
000002210000
ENDCHAR
STARTCHAR Otilde
ENCODING 213
SWIDTH 775 0
DWIDTH 12 0
BBX 12 17 0 -1
BITMAP
000048507200
0004FFFDFA00
0008FAEFE300
000030141000
00029CDA5000
007FFFFFFB10
06FFFFFFFFC0
1EFF9115EFF6
5FFB00005FFC
8FF500000EFE
8FF400000DFE
7FF800002FFD
2FFF5001CFF8
09FFFCBEFFE1
01BFFFFFFE40
0007EFFFB200
000002210000
ENDCHAR
STARTCHAR Odieresis
ENCODING 214
SWIDTH 775 0
DWIDTH 12 0
BBX 12 17 0 -1
BITMAP
001771068300
006FF62FFA00
005FF51FFA00
000330024100
00029CDA5000
007FFFFFFB10
06FFFFFFFFC0
1EFF9115EFF6
5FFB00005FFC
8FF500000EFE
8FF400000DFE
7FF800002FFD
2FFF5001CFF8
09FFFCBEFFE1
01BFFFFFFE40
0007EFFFB200
000002210000
ENDCHAR
STARTCHAR multiply
ENCODING 215
SWIDTH 521 0
DWIDTH 8 0
BBX 8 8 0 0
BITMAP
2C9005E5
8FFA6FFD
1CFFFFE4
01DFFF40
05FFFFA0
4FFECFF9
6FE41CFB
06300171
ENDCHAR
STARTCHAR Oslash
ENCODING 216
SWIDTH 775 0
DWIDTH 12 0
BBX 12 14 0 -1
BITMAP
000000007300
00029CCCFF30
007FFFFFFF20
06FFFFFFFFC0
1EFF92DFFFF6
5FFA05FFCFFB
8FF50CFF2EFE
8FF44FF90DFF
7FF8CFF22FFD
2FFFFFA1CFF8
09FFFFCEFFE1
01BFFFFFFE40
008FFFFFB200
003B91210000
ENDCHAR
STARTCHAR Ugrave
ENCODING 217
SWIDTH 726 0
DWIDTH 12 0
BBX 11 17 0 -1
BITMAP
000410000000
004FFC700000
005FFFF30000
00015AB00000
1AA200006B70
5FF70000DFE0
5FF70000DFF0
5FF70000DFF0
5FF70000DFF0
5FF70000DFF0
5FF80000DFE0
4FFA0001FFD0
1FFE3008FFA0
09FFEBCFFF30
01DFFFFFF800
0019FFFD6000
000012200000
ENDCHAR
STARTCHAR Uacute
ENCODING 218
SWIDTH 726 0
DWIDTH 12 0
BBX 11 17 0 -1
BITMAP
000000273000
00006DFFC000
0000BFFE8000
000049400000
1AA200006B70
5FF70000DFE0
5FF70000DFF0
5FF70000DFF0
5FF70000DFF0
5FF70000DFF0
5FF80000DFE0
4FFA0001FFD0
1FFE3008FFA0
09FFEBCFFF30
01DFFFFFF800
0019FFFD6000
000012200000
ENDCHAR
STARTCHAR Ucircumflex
ENCODING 219
SWIDTH 726 0
DWIDTH 12 0
BBX 11 17 0 -1
BITMAP
000027720000
001CFFFFC100
001EFDDFF100
000350054000
1AA200006B70
5FF70000DFE0
5FF70000DFF0
5FF70000DFF0
5FF70000DFF0
5FF70000DFF0
5FF80000DFE0
4FFA0001FFD0
1FFE3008FFA0
09FFEBCFFF30
01DFFFFFF800
0019FFFD6000
000012200000
ENDCHAR
STARTCHAR Udieresis
ENCODING 220
SWIDTH 726 0
DWIDTH 12 0
BBX 11 17 0 -1
BITMAP
003850177100
00BFF16FF600
00AFE15FF500
001420033000
1AA200006B70
5FF70000DFE0
5FF70000DFF0
5FF70000DFF0
5FF70000DFF0
5FF70000DFF0
5FF80000DFE0
4FFA0001FFD0
1FFE3008FFA0
09FFEBCFFF30
01DFFFFFF800
0019FFFD6000
000012200000
ENDCHAR
STARTCHAR Yacute
ENCODING 221
SWIDTH 686 0
DWIDTH 11 0
BBX 11 16 0 0
BITMAP
000001650000
0003CFFF1000
0007FFFB1000
000196100000
2BA00000AB20
AFF60006FFA0
5FFE102EFF50
0AFFA0AFFA00
01EFF8FFD100
005FFFFF4000
000AFFF90000
0001FFE10000
0000EFE00000
0000EFE00000
0000EFE00000
0000BFA00000
ENDCHAR
STARTCHAR Thorn
ENCODING 222
SWIDTH 634 0
DWIDTH 10 0
BBX 10 12 0 0
BITMAP
1AA2000000
5FF8210000
5FFFFFE810
5FFFFFFFB0
5FFDBBFFF6
5FF7005FFA
5FF7003FFA
5FFB77DFF7
5FFFFFFFE1
5FFFFFFC20
5FFA663000
2DE4000000
ENDCHAR
STARTCHAR germandbls
ENCODING 223
SWIDTH 633 0
DWIDTH 10 0
BBX 10 13 0 -1
BITMAP
029DFFC500
1DFFFFFF20
4FFD6AFF40
5FF60BFE10
5FF65FF500
5FF68FF200
5FF64FFE40
5FF605EFF4
5FF6002EFA
5FF65A7FFA
5FF6BFFFF7
5FF68EFE90
1771000000
ENDCHAR
STARTCHAR agrave
ENCODING 224
SWIDTH 596 0
DWIDTH 10 0
BBX 9 13 0 0
BITMAP
0004200000
003FFC7100
004EFFF400
00015AC100
0005513630
02DFFEEFD0
1DFFFFFFD0
6FFD6BFFD0
8FF401FFD0
8FF704FFD0
3FFFDFFFD0
09FFFFFFD0
007DE99E90
ENDCHAR
STARTCHAR aacute
ENCODING 225
SWIDTH 596 0
DWIDTH 10 0
BBX 9 13 0 0
BITMAP
0000015000
0006BFF500
001FFFF600
000AA61000
0005513630
02DFFEEFD0
1DFFFFFFD0
6FFD6BFFD0
8FF401FFD0
8FF704FFD0
3FFFDFFFD0
09FFFFFFD0
007DE99E90
ENDCHAR
STARTCHAR acircumflex
ENCODING 226
SWIDTH 596 0
DWIDTH 10 0
BBX 9 13 0 0
BITMAP
0000351000
007DFFEA20
00DFFFFF50
0048317800
0005513630
02DFFEEFD0
1DFFFFFFD0
6FFD6BFFD0
8FF401FFD0
8FF704FFD0
3FFFDFFFD0
09FFFFFFD0
007DE99E90
ENDCHAR
STARTCHAR atilde
ENCODING 227
SWIDTH 596 0
DWIDTH 10 0
BBX 9 13 0 0
BITMAP
0003511300
007FFDCF40
00EFDFFE10
0034067100
0005513630
02DFFEEFD0
1DFFFFFFD0
6FFD6BFFD0
8FF401FFD0
8FF704FFD0
3FFFDFFFD0
09FFFFFFD0
007DE99E90
ENDCHAR
STARTCHAR adieresis
ENCODING 228
SWIDTH 596 0
DWIDTH 10 0
BBX 9 13 0 0
BITMAP
0045003510
05FF60FFB0
05FF71FFB0
0066104730
0005513630
02DFFEEFD0
1DFFFFFFD0
6FFD6BFFD0
8FF401FFD0
8FF704FFD0
3FFFDFFFD0
09FFFFFFD0
007DE99E90
ENDCHAR
STARTCHAR aring
ENCODING 229
SWIDTH 596 0
DWIDTH 10 0
BBX 9 12 0 0
BITMAP
0001BD6000
000591C000
0002DB8000
0005643630
02DFFEEFD0
1DFFFFFFD0
6FFD6BFFD0
8FF401FFD0
8FF704FFD0
3FFFDFFFD0
09FFFFFFD0
007DE99E90
ENDCHAR
STARTCHAR ae
ENCODING 230
SWIDTH 910 0
DWIDTH 15 0
BBX 15 10 0 -1
BITMAP
0037861026751000
0AFFFFEAFFFFE300
5FFFFFFFFFFFFC00
0CE61BFFF40BFF10
016766FFFCCEFE10
3EFFFFFFFAAAA400
8FE105FFF8569300
6FFCDFFFFFFFFA00
1AFFFC33CFFFC400
0012100001100000
ENDCHAR
STARTCHAR ccedilla
ENCODING 231
SWIDTH 524 0
DWIDTH 8 0
BBX 8 12 0 -3
BITMAP
00169840
03DFFFF9
1EFFFFFD
6FFD68D4
8FF60000
7FF90140
3FFFDEF9
09FFFFFD
006EFFC3
000AFE20
00058F40
0008FB10
ENDCHAR
STARTCHAR egrave
ENCODING 232
SWIDTH 573 0
DWIDTH 9 0
BBX 9 14 0 -1
BITMAP
0014100000
008FEA5000
009FFFE000
00027B7000
0016985000
03EFFFFB10
1EFFFFFF70
6FFB12FFB0
8FFDBCFF90
7FFDBBB920
4FFD547800
0AFFFFFF40
019EFFFC10
0001231000
ENDCHAR
STARTCHAR eacute
ENCODING 233
SWIDTH 573 0
DWIDTH 9 0
BBX 9 14 0 -1
BITMAP
0000024000
0017CFF300
004FFFF400
000BA51000
0016985000
03EFFFFB10
1EFFFFFF70
6FFB12FFB0
8FFDBCFF90
7FFDBBB920
4FFD547800
0AFFFFFF40
019EFFFC10
0001231000
ENDCHAR
STARTCHAR ecircumflex
ENCODING 234
SWIDTH 573 0
DWIDTH 9 0
BBX 9 14 0 -1
BITMAP
0001530000
02AEFFD600
05FFFFFD00
0086139400
0016985000
03EFFFFB10
1EFFFFFF70
6FFB12FFB0
8FFDBCFF90
7FFDBBB920
4FFD547800
0AFFFFFF40
019EFFFC10
0001231000
ENDCHAR
STARTCHAR edieresis
ENCODING 235
SWIDTH 573 0
DWIDTH 9 0
BBX 9 14 0 -1
BITMAP
0252015300
0EFC09FF20
0EFD09FF20
0473027500
0016985000
03EFFFFB10
1EFFFFFF70
6FFB12FFB0
8FFDBCFF90
7FFDBBB920
4FFD547800
0AFFFFFF40
019EFFFC10
0001231000
ENDCHAR
STARTCHAR igrave
ENCODING 236
SWIDTH 255 0
DWIDTH 4 0
BBX 5 13 -1 0
BITMAP
141000
9FEA50
9FFFE0
027B70
005500
05FF50
05FF70
05FF70
05FF70
05FF70
05FF70
05FF60
03EE30
ENDCHAR
STARTCHAR iacute
ENCODING 237
SWIDTH 255 0
DWIDTH 4 0
BBX 5 13 0 0
BITMAP
000420
39EFC0
AFFFC0
4C8300
055000
5FF500
5FF700
5FF700
5FF700
5FF700
5FF700
5FF600
3EE300
ENDCHAR
STARTCHAR icircumflex
ENCODING 238
SWIDTH 255 0
DWIDTH 4 0
BBX 8 13 -2 0
BITMAP
00034000
08EFFE91
1FFFFFF2
05822870
00055000
005FF500
005FF700
005FF700
005FF700
005FF700
005FF700
005FF600
003EE300
ENDCHAR
STARTCHAR idieresis
ENCODING 239
SWIDTH 255 0
DWIDTH 4 0
BBX 8 13 -2 0
BITMAP
05400351
7FF42FF9
7FF43FF9
17600572
00055000
005FF600
005FF700
005FF700
005FF700
005FF700
005FF700
005FF700
003EE400
ENDCHAR
STARTCHAR eth
ENCODING 240
SWIDTH 585 0
DWIDTH 9 0
BBX 9 14 0 -1
BITMAP
00032C3000
005FFE1000
004EFF9000
003FAEF700
000635FF20
019FFFEF70
0BFFFFFFB0
5FFD6AFFD0
8FF400DFE0
8FF501EFD0
4FFEADFF80
0AFFFFFD10
007EFFB200
0000210000
ENDCHAR
STARTCHAR ntilde
ENCODING 241
SWIDTH 606 0
DWIDTH 10 0
BBX 10 13 0 0
BITMAP
0004402200
00BFFBEE00
03FEEFFA00
0052176000
0561363000
5FFCFFFA00
5FFFFFFF70
5FFE79FFD0
5FF700CFF1
5FF700CFF1
5FF700CFF1
5FF600BFF1
3DE3007EC0
ENDCHAR
STARTCHAR ograve
ENCODING 242
SWIDTH 600 0
DWIDTH 10 0
BBX 10 14 0 -1
BITMAP
0005100000
006FFB6000
006FFFF100
00016BA000
0016984000
03DFFFFA00
1DFFFFFF80
6FFC46FFF1
8FF400AFF3
7FF700DFF2
3FFFBDFFC0
09FFFFFF30
007EFFC300
0000110000
ENDCHAR
STARTCHAR oacute
ENCODING 243
SWIDTH 600 0
DWIDTH 10 0
BBX 10 14 0 -1
BITMAP
0000015000
0006BFF500
002FFFF500
000AA61000
0016984000
03DFFFFA00
1DFFFFFF80
6FFC46FFF1
8FF400AFF3
7FF700DFF2
3FFFBDFFC0
09FFFFFF30
007EFFC300
0000110000
ENDCHAR
STARTCHAR ocircumflex
ENCODING 244
SWIDTH 600 0
DWIDTH 10 0
BBX 10 14 0 -1
BITMAP
0000430000
01AEFFD700
04FFFFFE00
0077138500
0016984000
03DFFFFA00
1DFFFFFF80
6FFC46FFF1
8FF400AFF3
7FF700DFF2
3FFFBDFFC0
09FFFFFF30
007EFFC300
0000110000
ENDCHAR
STARTCHAR otilde
ENCODING 245
SWIDTH 600 0
DWIDTH 10 0
BBX 10 14 0 -1
BITMAP
0005403200
00CFFBEE00
04FDEFF900
0062276000
0016984000
03DFFFFA00
1DFFFFFF80
6FFC46FFF1
8FF400AFF3
7FF700DFF2
3FFFBDFFC0
09FFFFFF30
007EFFC300
0000110000
ENDCHAR
STARTCHAR odieresis
ENCODING 246
SWIDTH 600 0
DWIDTH 10 0
BBX 10 14 0 -1
BITMAP
0252005400
0CFE07FF40
0CFE08FF40
0374017600
0016984000
03DFFFFA00
1DFFFFFF80
6FFC46FFF1
8FF400AFF3
7FF700DFF2
3FFFBDFFC0
09FFFFFF30
007EFFC300
0000110000
ENDCHAR
STARTCHAR divide
ENCODING 247
SWIDTH 503 0
DWIDTH 8 0
BBX 8 9 0 0
BITMAP
001AA100
004FF500
001CC200
28888883
8FFFFFF9
4BCCCCB5
00189100
004FF500
002DD200
ENDCHAR
STARTCHAR oslash
ENCODING 248
SWIDTH 600 0
DWIDTH 10 0
BBX 10 14 0 -3
BITMAP
0000008C40
000002FFA0
00169CFF50
03DFFFFE00
1DFFFFFF80
6FFC46FFE1
8FF400AFF3
8FF700DFF2
3FFFBDFFC0
09FFFFFF40
07FFFFC300
0DFE210000
1FF8000000
0261000000
ENDCHAR
STARTCHAR ugrave
ENCODING 249
SWIDTH 606 0
DWIDTH 10 0
BBX 10 13 0 0
BITMAP
0005100000
006FFB6000
006FFFF100
00016B9000
0560002640
5FF600BFF0
5FF700BFF1
5FF700BFF1
5FF700BFF1
4FFA01EFF1
1EFFDEFFF1
07FFFFFFF1
006DE98EB0
ENDCHAR
STARTCHAR uacute
ENCODING 250
SWIDTH 606 0
DWIDTH 10 0
BBX 10 13 0 0
BITMAP
0000004100
0005AEF900
000DFFF900
0007B72000
0560002640
5FF600BFF0
5FF700BFF1
5FF700BFF1
5FF700BFF1
4FFA01EFF1
1EFFDEFFF1
07FFFFFFF1
006DE98EB0
ENDCHAR
STARTCHAR ucircumflex
ENCODING 251
SWIDTH 606 0
DWIDTH 10 0
BBX 10 13 0 0
BITMAP
0000430000
019EFFE800
03FFFFFF10
0077128500
0560002640
5FF600BFF0
5FF700BFF1
5FF700BFF1
5FF700BFF1
4FFA01EFF1
1EFFDEFFF1
07FFFFFFF1
006DE98EB0
ENDCHAR
STARTCHAR udieresis
ENCODING 252
SWIDTH 606 0
DWIDTH 10 0
BBX 10 13 0 0
BITMAP
0153005400
0BFF06FF50
0BFF16FF50
0374016600
0560002640
5FF600BFF0
5FF700BFF1
5FF700BFF1
5FF700BFF1
4FFA01EFF1
1EFFDEFFF1
07FFFFFFF1
006DE98EB0
ENDCHAR
STARTCHAR yacute
ENCODING 253
SWIDTH 604 0
DWIDTH 10 0
BBX 10 17 0 -4
BITMAP
0000014100
0005AEF800
000EFFF800
0008B72000
0750000740
9FF2006FF5
7FFB00DFF2
0DFF55FFB0
04FFDCFF40
00AFFFFC00
002EFFF600
0007FFD000
0008FF7000
001EFE1000
007FF90000
00BFF20000
002A700000
ENDCHAR
STARTCHAR thorn
ENCODING 254
SWIDTH 580 0
DWIDTH 9 0
BBX 9 17 0 -4
BITMAP
1870000000
5FF3000000
5FF4000000
5FF4000000
5FF4551000
5FFEFFE500
5FFFFFFF30
5FFD7BFFA0
5FF500FFD0
5FF803FFC0
5FFFDFFF70
5FFFFFFC10
5FF9DE9100
5FF4000000
5FF4000000
5FF3000000
1870000000
ENDCHAR
STARTCHAR ydieresis
ENCODING 255
SWIDTH 604 0
DWIDTH 10 0
BBX 10 17 0 -4
BITMAP
0154004500
08FF33FF80
09FF34FF80
0175006710
0750000740
9FF2006FF5
7FFB00DFF2
0DFF55FFB0
04FFDCFF40
00AFFFFC00
002EFFF600
0007FFD000
0008FF7000
001EFE1000
007FF90000
00BFF20000
002A700000
ENDCHAR
STARTCHAR dotlessi
ENCODING 305
SWIDTH 255 0
DWIDTH 4 0
BBX 4 9 0 0
BITMAP
0550
5FF5
5FF7
5FF7
5FF7
5FF7
5FF7
5FF6
3EE3
ENDCHAR
STARTCHAR Lslash
ENCODING 321
SWIDTH 687 0
DWIDTH 11 0
BBX 11 12 0 0
BITMAP
005A80000000
00BFF1000000
00CFF1000000
00CFF1000000
00CFFBD20000
28EFFFF50000
8FFFF7200000
28DFF1000000
00CFF1000000
00CFF6666510
00BFFFFFFF80
007FFFFFFF60
ENDCHAR
STARTCHAR lslash
ENCODING 322
SWIDTH 468 0
DWIDTH 7 0
BBX 8 13 0 0
BITMAP
00262000
00DFD000
00DFE000
00DFE000
00DFE000
00DFEBD1
39FFFFF2
BFFFE610
37EFE000
00DFE000
00CFFB20
00AFFF70
002BFF40
ENDCHAR
STARTCHAR OE
ENCODING 338
SWIDTH 1092 0
DWIDTH 17 0
BBX 18 12 0 0
BITMAP
00027ABBBBBBBBBB80
006EFFFFFFFFFFFFF1
05FFFFFFFFFFFFFFD0
1EFFA312FFB2222200
5FFB0001FFC4443000
8FF50001FFFFFFF300
8FF40001FFFFFFF400
6FF90001FFD8887000
2FFF6001FFB0000000
08FFFDCCFFECCCCC90
009FFFFFFFFFFFFFF1
0005BEFFFFFFFFFFC0
ENDCHAR
STARTCHAR oe
ENCODING 339
SWIDTH 944 0
DWIDTH 15 0
BBX 15 10 0 -1
BITMAP
0006883005773000
03DFFFFADFFFFA00
1DFFFFFFFFFFFF50
6FFC47FFFB13FFA0
9FF400BFFDCCFF80
8FF600DFFCAAA810
3FFFBDFFFD658800
09FFFFFFFFFFFF30
007EFFC48EFFE910
0000210000110000
ENDCHAR
STARTCHAR Scaron
ENCODING 352
SWIDTH 583 0
DWIDTH 9 0
BBX 9 17 0 -1
BITMAP
0074037200
06FFEFFB00
03CFFFD700
0002640000
007CDC9200
0AFFFFFE10
3FFFCEFE10
5FF8018300
4FFD620000
0CFFFFD700
019FFFFF70
00015AFFC0
2DB100FFD0
8FFD8BFFB0
2EFFFFFF30
02AFFFB300
0000210000
ENDCHAR
STARTCHAR scaron
ENCODING 353
SWIDTH 489 0
DWIDTH 8 0
BBX 8 14 0 -1
BITMAP
04200410
4FFBEFB0
4EFFFFA0
00597200
00588610
0CFFFFE0
3FFCAEA0
4FFA5200
0DFFFFA0
02AEFFF4
2C938FF6
8FFFFFF3
29EFFD60
00021000
ENDCHAR
STARTCHAR Ydieresis
ENCODING 376
SWIDTH 686 0
DWIDTH 11 0
BBX 11 16 0 0
BITMAP
006830385000
01FFB0CFF100
01FFA0BFE000
002410142000
2BA00000AB20
AFF60006FFA0
5FFE102EFF50
0AFFA0AFFA00
01EFF8FFD100
005FFFFF4000
000AFFF90000
0001FFE10000
0000EFE00000
0000EFE00000
0000EFE00000
0000BFA00000
ENDCHAR
STARTCHAR Zcaron
ENCODING 381
SWIDTH 643 0
DWIDTH 10 0
BBX 10 16 0 0
BITMAP
0047116600
00EFFEFF30
009EFFFB20
0000561000
3BBBBBBBA2
8FFFFFFFF9
6FFFFFFFF5
00111CFFA0
00008FFD10
0004FFF400
001DFF8000
00AFFC0000
06FFE20000
2EFFDBBBB6
8FFFFFFFFD
4EFFFFFFFA
ENDCHAR
STARTCHAR zcaron
ENCODING 382
SWIDTH 586 0
DWIDTH 9 0
BBX 9 13 0 0
BITMAP
0042004200
02FFBDFC00
03EFFFFC00
0004972000
0577777610
3FFFFFFF90
3FFFFFFF90
0466EFFB10
001CFFA000
02DFF90000
2DFFFCCC80
8FFFFFFFE0
4EFFFFFFB0
ENDCHAR
STARTCHAR florin
ENCODING 402
SWIDTH 529 0
DWIDTH 8 0
BBX 9 16 0 -4
BITMAP
000019CC10
0001DFFF30
0008FFEB00
000CFF0000
05DFFFDD10
0AFFFFFF30
07DFFECA00
003FF80000
005FF70000
006FF50000
008FF40000
00AFF20000
02CFE00000
9FFFA00000
EFFE200000
6861000000
ENDCHAR
STARTCHAR circumflex
ENCODING 710
SWIDTH 603 0
DWIDTH 10 0
BBX 7 4 1 9
BITMAP
00043000
1AEFFD70
4FFFFFE0
07713940
ENDCHAR
STARTCHAR caron
ENCODING 711
SWIDTH 600 0
DWIDTH 10 0
BBX 7 4 1 9
BITMAP
04200420
3FFBDFC0
3EFFFFC0
00497200
ENDCHAR
STARTCHAR dotaccent
ENCODING 729
SWIDTH 285 0
DWIDTH 5 0
BBX 3 3 1 11
BITMAP
CF80
FFB0
8B50
ENDCHAR
STARTCHAR ring
ENCODING 730
SWIDTH 378 0
DWIDTH 6 0
BBX 5 5 1 10
BITMAP
299200
CA9D00
F21F10
ADDA00
055000
ENDCHAR
STARTCHAR ogonek
ENCODING 731
SWIDTH 570 0
DWIDTH 9 0
BBX 4 5 2 -4
BITMAP
0273
1EFC
2F86
0AFB
0010
ENDCHAR
STARTCHAR tilde
ENCODING 732
SWIDTH 584 0
DWIDTH 9 0
BBX 7 4 1 9
BITMAP
02520400
4FFEBF80
AFDFFF40
16047300
ENDCHAR
STARTCHAR endash
ENCODING 8211
SWIDTH 561 0
DWIDTH 9 0
BBX 9 3 0 3
BITMAP
5AAAAAAA40
BFFFFFFFB0
7EEEEEEE70
ENDCHAR
STARTCHAR emdash
ENCODING 8212
SWIDTH 693 0
DWIDTH 11 0
BBX 11 3 0 3
BITMAP
5AAAAAAAAA50
BFFFFFFFFFC0
7EEEEEEEEE90
ENDCHAR
STARTCHAR quoteleft
ENCODING 8216
SWIDTH 237 0
DWIDTH 4 0
BBX 4 6 0 6
BITMAP
0193
0CD2
5F70
8FF4
8FF6
3BB2
ENDCHAR
STARTCHAR quoteright
ENCODING 8217
SWIDTH 237 0
DWIDTH 4 0
BBX 4 6 0 6
BITMAP
3AA1
9FF6
7FF5
0AF2
3EA0
6910
ENDCHAR
STARTCHAR quotesinglbase
ENCODING 8218
SWIDTH 237 0
DWIDTH 4 0
BBX 4 6 0 -3
BITMAP
5ED3
9FF6
5FF4
09F1
5F80
4500
ENDCHAR
STARTCHAR quotedblleft
ENCODING 8220
SWIDTH 482 0
DWIDTH 8 0
BBX 8 6 0 6
BITMAP
01930292
0CD21DC1
5F706F50
8FF49FF2
8FF6AFF4
3BB24CA1
ENDCHAR
STARTCHAR quotedblright
ENCODING 8221
SWIDTH 482 0
DWIDTH 8 0
BBX 8 6 0 6
BITMAP
3AA14B91
9FF6AFF4
7FF59FF3
0AF20BF1
3EA04E90
69107910
ENDCHAR
STARTCHAR quotedblbase
ENCODING 8222
SWIDTH 482 0
DWIDTH 8 0
BBX 8 6 0 -3
BITMAP
5ED36ED2
9FF6AFF4
5FF46FF3
09F10BE0
5F807F60
45005500
ENDCHAR
STARTCHAR dagger
ENCODING 8224
SWIDTH 527 0
DWIDTH 8 0
BBX 9 15 0 -3
BITMAP
001CE50000
003FF90000
003FF90000
034FFA2100
AFFFFFFF10
AFFFFFFF20
156FFA5400
003FF90000
003FF90000
003FF90000
003FF90000
003FF90000
003FF90000
003FF90000
001DF60000
ENDCHAR
STARTCHAR daggerdbl
ENCODING 8225
SWIDTH 527 0
DWIDTH 8 0
BBX 9 15 0 -3
BITMAP
001CE50000
003FF90000
003FF90000
034FFA2100
AFFFFFFF10
AFFFFFFF20
156FFA5400
003FF90000
145FFA4200
AFFFFFFF20
AFFFFFFF20
145FFA4200
003FF90000
003FF90000
001DF60000
ENDCHAR
STARTCHAR bullet
ENCODING 8226
SWIDTH 342 0
DWIDTH 5 0
BBX 5 6 0 2
BITMAP
025400
3FFFA0
8FFFF0
8FFFF0
2EFF80
014200
ENDCHAR
STARTCHAR ellipsis
ENCODING 8230
SWIDTH 911 0
DWIDTH 15 0
BBX 15 3 0 0
BITMAP
5ED301CE7008EC00
9FF603FFB00CFF20
5EE301DF8008FD10
ENDCHAR
STARTCHAR perthousand
ENCODING 8240
SWIDTH 1223 0
DWIDTH 20 0
BBX 19 14 0 -1
BITMAP
00000000062000000000
029B80003F6000000000
0DFFF900BD0000000000
4F93DE04F50000000000
5F60CF0CC00000000000
2FECFC5F400000000000
06FFE4CB000000000000
001206F36DD9004CD910
00000DA3FFFF72FFFF90
00006F28F51FB6F61ED0
0001E908F41FB6F60ED0
0007F204FFEF82FFEF90
001E80007EEA105DFB10
00051000000000000000
ENDCHAR
STARTCHAR guilsinglleft
ENCODING 8249
SWIDTH 383 0
DWIDTH 6 0
BBX 6 9 0 0
BITMAP
000150
001DF9
01DFFA
1DFFC1
AFFC10
7FFE40
08FFF4
007FFC
0007E4
ENDCHAR
STARTCHAR guilsinglright
ENCODING 8250
SWIDTH 383 0
DWIDTH 6 0
BBX 6 9 0 0
BITMAP
052000
7FD200
8FFD20
0AFFD2
00BFFC
03EFF8
3EFF90
AFF900
3E9000
ENDCHAR
STARTCHAR fraction
ENCODING 8260
SWIDTH 433 0
DWIDTH 7 0
BBX 9 14 0 -1
BITMAP
0000000710
0000007F20
000001E900
000007F200
00001E8000
00008E1000
0002F70000
0009E10000
002F700000
00AD000000
03F6000000
0BD0000000
3F50000000
1600000000
ENDCHAR
STARTCHAR Euro
ENCODING 8364
SWIDTH 612 0
DWIDTH 10 0
BBX 10 13 0 0
BITMAP
0000135540
0007EFFFF4
006FFFFFF5
00EFFA7760
27FFD55510
BFFFFFFF70
3AFF955510
7DFFCBBA30
AFFFFFFF60
01FFC00000
00BFFECCB2
003EFFFFF5
0002AEFFE3
ENDCHAR
STARTCHAR trademark
ENCODING 8482
SWIDTH 840 0
DWIDTH 13 0
BBX 13 8 0 3
BITMAP
12222101000100
BFFFFE6F804FA0
7BFFCA7FF5DFC0
00DF207FFFFFC0
00DF207FFFFFC0
00DF207F996FC0
00CF107F702FB0
00120002000210
ENDCHAR
STARTCHAR minus
ENCODING 8722
SWIDTH 581 0
DWIDTH 9 0
BBX 9 3 0 3
BITMAP
3AAAAAAA60
8FFFFFFFD0
5DEEEEED90
ENDCHAR
STARTCHAR f_f
ENCODING 64256
SWIDTH 803 0
DWIDTH 13 0
BBX 13 13 0 0
BITMAP
00015610035400
004EFF709FFF20
01EFFF75FFFF20
03FFC519FF8400
28FFA66CFF7610
BFFFFFFFFFFF80
BFFFFFFFFFFF80
28FFA56CFF7510
04FF800AFF3000
04FF800AFF3000
04FF800AFF3000
04FF800AFF2000
02DE4006ED1000
ENDCHAR
STARTCHAR fi
ENCODING 64257
SWIDTH 709 0
DWIDTH 11 0
BBX 11 13 0 0
BITMAP
000146103510
004EFF71FFA0
01EFFF71FFA0
03FFC6104620
18FFA6304610
AFFFFFD1FF90
AFFFFFD1FFB0
28FFB631FFB0
04FF8001FFB0
04FF8001FFB0
04FF8001FFB0
04FF8001FFA0
02EE4000CE70
ENDCHAR
STARTCHAR fl
ENCODING 64258
SWIDTH 774 0
DWIDTH 12 0
BBX 13 13 0 0
BITMAP
00014610451000
004EFF72FF8000
01EFFF73FF9000
03FFC613FF9000
18FFA633FF9000
AFFFFFD3FF9000
AFFFFFD3FF9000
28FFB633FF9000
04FF8003FF9000
04FF8003FF9000
04FF8002FFE900
04FF8000EFFF20
02EE40005DFE10
ENDCHAR
STARTCHAR f_f_i
ENCODING 64259
SWIDTH 1059 0
DWIDTH 17 0
BBX 17 13 0 0
BITMAP
000156100354003300
004EFF709FFF26FF30
01EFFF75FFFF27FF40
03FFC519FF84017600
28FFA66CFF76105400
BFFFFFFFFFFF86FF30
BFFFFFFFFFFF87FF40
28FFA56CFF7517FF40
04FF800AFF3007FF40
04FF800AFF3007FF40
04FF800AFF3007FF40
04FF800AFF2007FF40
02DE4006ED1004EE20
ENDCHAR
STARTCHAR .notdef
ENCODING -1
SWIDTH 500 0
DWIDTH 8 0
BBX 1 1 0 0
BITMAP
00
ENDCHAR
STARTCHAR .null
ENCODING -1
SWIDTH 0 0
DWIDTH 0 0
BBX 1 1 0 0
BITMAP
00
ENDCHAR
STARTCHAR nonmarkingreturn
ENCODING -1
SWIDTH 333 0
DWIDTH 5 0
BBX 1 1 0 0
BITMAP
00
ENDCHAR
STARTCHAR f_t
ENCODING -1
SWIDTH 814 0
DWIDTH 13 0
BBX 13 13 0 0
BITMAP
00015610000000
004EFF70430000
01EFFF76FF4000
03FFC517FF5000
28FFA66AFF9620
BFFFFFFFFFFFB0
BFFFFFFFFFFFB0
28FFA56AFF9620
04FF8007FF5000
04FF8007FF5000
04FF8005FFD910
04FF8001DFFF50
02DE40002BEE20
ENDCHAR
STARTCHAR t_t
ENCODING -1
SWIDTH 794 0
DWIDTH 13 0
BBX 13 12 0 0
BITMAP
00340001420000
03FF600BFE0000
04FF700CFF0000
28FFA66DFF6500
BFFFFFFFFFFF60
BFFFFFFFFFFF60
28FFA66DFF6600
04FF800CFF0000
04FF800BFF1000
02FFE92AFFB700
00CFFF75FFFF00
002AEF406CFC00
ENDCHAR
STARTCHAR l_l
ENCODING -1
SWIDTH 626 0
DWIDTH 10 0
BBX 10 13 0 0
BITMAP
0550036200
5FF60FFA00
5FF71FFC00
5FF71FFC00
5FF71FFC00
5FF71FFC00
5FF71FFC00
5FF71FFC00
5FF71FFC00
5FF71FFC00
4FFE5EFFC6
1FFF99FFFB
05CE618DE7
ENDCHAR
STARTCHAR j_j
ENCODING -1
SWIDTH 521 0
DWIDTH 8 0
BBX 11 17 -3 -4
BITMAP
000033002310
0004FF50EF90
0005FF50FFA0
000066004720
000055003510
0005FF50FFA0
0005FF61FFB0
0005FF61FFB0
0005FF61FFB0
0005FF61FFB0
0005FF61FFB0
0005FF61FFB0
0006FF61FFA0
002BFF43FF90
0DFFFD7FFF60
1FFFE3AFFE10
08A7104A9200
ENDCHAR
ENDFONT
